<svg width="24" height="25" viewBox="0 0 24 25" fill="none" xmlns="http://www.w3.org/2000/svg">
<g clip-path="url(#clip0_899_528)">
<path d="M16.9999 17.12C17.6184 17.12 18.1199 16.6186 18.1199 16C18.1199 15.3814 17.6184 14.88 16.9999 14.88C16.3813 14.88 15.8799 15.3814 15.8799 16C15.8799 16.6186 16.3813 17.12 16.9999 17.12Z" fill="#838B93"/>
<path fill-rule="evenodd" clip-rule="evenodd" d="M16.9998 18C16.2698 18 14.8098 18.36 14.7598 19.08C15.2598 19.79 16.0798 20.25 16.9998 20.25C17.9198 20.25 18.7398 19.79 19.2398 19.08C19.1898 18.36 17.7298 18 16.9998 18Z" fill="#838B93"/>
<path fill-rule="evenodd" clip-rule="evenodd" d="M18 11.59V6.77L10.5 3.5L3 6.77V11.68C3 16.22 6.2 20.47 10.5 21.5C11.05 21.37 11.58 21.18 12.1 20.95C13.18 22.49 14.97 23.5 17 23.5C20.31 23.5 23 20.81 23 17.5C23 14.53 20.84 12.07 18 11.59ZM11 17.5C11 18.06 11.08 18.61 11.23 19.12C10.99 19.23 10.75 19.34 10.5 19.42C7.33 18.42 5 15.18 5 11.68V8.08L10.5 5.68L16 8.08V11.59C13.16 12.07 11 14.53 11 17.5ZM17 21.5C14.79 21.5 13 19.71 13 17.5C13 15.29 14.79 13.5 17 13.5C19.21 13.5 21 15.29 21 17.5C21 19.71 19.21 21.5 17 21.5Z" fill="#838B93"/>
</g>
<defs>
<clipPath id="clip0_899_528">
<rect width="24" height="24" fill="white" transform="translate(0 0.5)"/>
</clipPath>
</defs>
</svg>
