<svg width="36" height="38" viewBox="0 0 36 38" fill="none" xmlns="http://www.w3.org/2000/svg">
<rect x="0.5" y="1.00195" width="35" height="35.7037" rx="9.5" stroke="#F5F5F5"/>
<g clip-path="url(#clip0_82_2988)">
<path d="M8.8335 18.8536C8.8335 18.8536 12.1668 12.0566 18.0002 12.0566C23.8335 12.0566 27.1668 18.8536 27.1668 18.8536C27.1668 18.8536 23.8335 25.6506 18.0002 25.6506C12.1668 25.6506 8.8335 18.8536 8.8335 18.8536Z" stroke="#0B5FFF" stroke-width="2" stroke-linecap="round" stroke-linejoin="round"/>
<path d="M18 21.4024C19.3807 21.4024 20.5 20.2613 20.5 18.8536C20.5 17.4459 19.3807 16.3047 18 16.3047C16.6193 16.3047 15.5 17.4459 15.5 18.8536C15.5 20.2613 16.6193 21.4024 18 21.4024Z" stroke="#0B5FFF" stroke-width="2" stroke-linecap="round" stroke-linejoin="round"/>
</g>
<defs>
<clipPath id="clip0_82_2988">
<rect width="20" height="20.3909" fill="white" transform="translate(8 8.6582)"/>
</clipPath>
</defs>
</svg>
