<svg width="22" height="23" viewBox="0 0 22 23" fill="none" xmlns="http://www.w3.org/2000/svg">
<g clip-path="url(#clip0_911_538)">
<path d="M11 14.25C12.5188 14.25 13.75 13.0188 13.75 11.5C13.75 9.98122 12.5188 8.75 11 8.75C9.48122 8.75 8.25 9.98122 8.25 11.5C8.25 13.0188 9.48122 14.25 11 14.25Z" stroke="#01443F" stroke-width="2" stroke-linecap="round" stroke-linejoin="round"/>
<path d="M17.7832 14.25C17.6611 14.5265 17.6248 14.8332 17.6787 15.1306C17.7326 15.4279 17.8743 15.7023 18.0857 15.9184L18.1407 15.9734C18.3111 16.1436 18.4464 16.3458 18.5386 16.5684C18.6309 16.7909 18.6784 17.0295 18.6784 17.2704C18.6784 17.5114 18.6309 17.7499 18.5386 17.9725C18.4464 18.1951 18.3111 18.3973 18.1407 18.5675C17.9704 18.738 17.7682 18.8732 17.5456 18.9655C17.3231 19.0577 17.0845 19.1052 16.8436 19.1052C16.6027 19.1052 16.3641 19.0577 16.1415 18.9655C15.919 18.8732 15.7168 18.738 15.5465 18.5675L15.4915 18.5125C15.2755 18.3012 15.0011 18.1594 14.7037 18.1055C14.4063 18.0516 14.0997 18.088 13.8232 18.21C13.552 18.3262 13.3208 18.5192 13.158 18.7651C12.9951 19.011 12.9077 19.2992 12.9065 19.5942V19.75C12.9065 20.2363 12.7134 20.7026 12.3695 21.0464C12.0257 21.3902 11.5594 21.5834 11.0732 21.5834C10.5869 21.5834 10.1206 21.3902 9.77681 21.0464C9.43299 20.7026 9.23984 20.2363 9.23984 19.75V19.6675C9.23274 19.3641 9.13453 19.0699 8.95797 18.823C8.78142 18.5761 8.53468 18.3881 8.24984 18.2834C7.97336 18.1613 7.66666 18.1249 7.3693 18.1789C7.07194 18.2328 6.79754 18.3745 6.5815 18.5859L6.5265 18.6409C6.35624 18.8113 6.15404 18.9465 5.93148 19.0388C5.70891 19.1311 5.47035 19.1785 5.22942 19.1785C4.98849 19.1785 4.74993 19.1311 4.52736 19.0388C4.3048 18.9465 4.1026 18.8113 3.93234 18.6409C3.76188 18.4706 3.62666 18.2684 3.53439 18.0458C3.44213 17.8233 3.39465 17.5847 3.39465 17.3438C3.39465 17.1028 3.44213 16.8643 3.53439 16.6417C3.62666 16.4192 3.76188 16.217 3.93234 16.0467L3.98734 15.9917C4.19866 15.7756 4.34042 15.5013 4.39434 15.2039C4.44826 14.9065 4.41186 14.5998 4.28984 14.3234C4.17364 14.0522 3.9807 13.821 3.73476 13.6581C3.48883 13.4953 3.20064 13.4079 2.90567 13.4067H2.74984C2.26361 13.4067 1.79729 13.2135 1.45347 12.8697C1.10966 12.5259 0.916504 12.0596 0.916504 11.5734C0.916504 11.0871 1.10966 10.6208 1.45347 10.277C1.79729 9.93318 2.26361 9.74002 2.74984 9.74002H2.83234C3.13575 9.73292 3.43001 9.63471 3.67686 9.45816C3.92371 9.2816 4.11174 9.03486 4.2165 8.75002C4.33853 8.47354 4.37493 8.16684 4.32101 7.86948C4.26709 7.57212 4.12533 7.29773 3.914 7.08169L3.859 7.02669C3.68855 6.85642 3.55332 6.65422 3.46106 6.43166C3.3688 6.2091 3.32131 5.97053 3.32131 5.7296C3.32131 5.48868 3.3688 5.25011 3.46106 5.02755C3.55332 4.80498 3.68855 4.60279 3.859 4.43252C4.02927 4.26206 4.23147 4.12684 4.45403 4.03458C4.67659 3.94232 4.91516 3.89483 5.15609 3.89483C5.39702 3.89483 5.63558 3.94232 5.85814 4.03458C6.08071 4.12684 6.2829 4.26206 6.45317 4.43252L6.50817 4.48752C6.72421 4.69885 6.9986 4.84061 7.29596 4.89452C7.59333 4.94844 7.90002 4.91204 8.1765 4.79002H8.24984C8.52096 4.67382 8.75219 4.48088 8.91506 4.23495C9.07793 3.98901 9.16533 3.70082 9.1665 3.40585V3.25002C9.1665 2.76379 9.35966 2.29747 9.70348 1.95366C10.0473 1.60984 10.5136 1.41669 10.9998 1.41669C11.4861 1.41669 11.9524 1.60984 12.2962 1.95366C12.64 2.29747 12.8332 2.76379 12.8332 3.25002V3.33252C12.8343 3.62749 12.9218 3.91568 13.0846 4.16161C13.2475 4.40755 13.4787 4.60049 13.7498 4.71669C14.0263 4.83871 14.333 4.87511 14.6304 4.82119C14.9277 4.76727 15.2021 4.62551 15.4182 4.41419L15.4732 4.35919C15.6434 4.18873 15.8456 4.05351 16.0682 3.96124C16.2908 3.86898 16.5293 3.8215 16.7703 3.8215C17.0112 3.8215 17.2497 3.86898 17.4723 3.96124C17.6949 4.05351 17.8971 4.18873 18.0673 4.35919C18.2378 4.52945 18.373 4.73165 18.4653 4.95421C18.5575 5.17678 18.605 5.41534 18.605 5.65627C18.605 5.8972 18.5575 6.13576 18.4653 6.35833C18.373 6.58089 18.2378 6.78309 18.0673 6.95335L18.0123 7.00835C17.801 7.22439 17.6593 7.49879 17.6053 7.79615C17.5514 8.09351 17.5878 8.40021 17.7098 8.67669V8.75002C17.826 9.02114 18.019 9.25237 18.2649 9.41524C18.5108 9.57811 18.799 9.66551 19.094 9.66669H19.2498C19.7361 9.66669 20.2024 9.85984 20.5462 10.2037C20.89 10.5475 21.0832 11.0138 21.0832 11.5C21.0832 11.9863 20.89 12.4526 20.5462 12.7964C20.2024 13.1402 19.7361 13.3334 19.2498 13.3334H19.1673C18.8724 13.3345 18.5842 13.4219 18.3382 13.5848C18.0923 13.7477 17.8994 13.9789 17.7832 14.25Z" stroke="#01443F" stroke-width="2" stroke-linecap="round" stroke-linejoin="round"/>
</g>
<defs>
<clipPath id="clip0_911_538">
<rect width="22" height="22" fill="white" transform="translate(0 0.5)"/>
</clipPath>
</defs>
</svg>
